<?xml version="1.0" standalone="no"?>
<!DOCTYPE svg PUBLIC "-//W3C//DTD SVG 20010904//EN"
 "http://www.w3.org/TR/2001/REC-SVG-20010904/DTD/svg10.dtd">
<svg version="1.0" xmlns="http://www.w3.org/2000/svg"
 width="1054.000000pt" height="1054.000000pt" viewBox="0 0 1054.000000 1054.000000"
 preserveAspectRatio="xMidYMid meet">

<g transform="translate(0.000000,1054.000000) scale(0.100000,-0.100000)"
fill="#000000" stroke="none">
<path d="M4836 10519 c-505 -42 -1017 -161 -1511 -354 -148 -57 -464 -210
-633 -306 -143 -81 -392 -239 -392 -248 1 -23 50 -51 89 -51 17 0 42 -5 56
-12 25 -11 26 -13 21 -86 -4 -55 -2 -79 9 -96 l15 -23 86 29 c119 40 134 32
44 -23 -41 -25 -83 -49 -92 -52 -10 -3 -54 -31 -98 -62 -77 -54 -102 -88 -85
-114 10 -18 51 -12 70 9 11 12 31 20 52 20 28 0 33 -4 33 -23 0 -26 -56 -107
-73 -107 -14 0 -71 -89 -107 -165 -13 -27 -38 -68 -55 -90 -41 -50 -125 -172
-125 -179 0 -4 -27 -41 -60 -84 -34 -42 -88 -116 -122 -164 -34 -49 -65 -88
-70 -88 -4 0 -8 -5 -8 -11 0 -10 -55 -80 -112 -144 -16 -16 -28 -33 -28 -37 0
-8 -79 -105 -131 -162 l-38 -41 -29 28 c-15 15 -39 27 -52 27 -13 0 -38 5 -56
12 -27 10 -42 8 -96 -10 -36 -12 -72 -22 -81 -22 -9 0 -21 -10 -28 -21 -10
-19 -13 -20 -26 -6 -14 14 -14 20 1 63 9 26 16 58 16 70 0 12 14 56 30 97 23
57 30 92 30 144 1 71 6 101 38 223 17 63 72 209 101 268 4 9 23 49 40 87 18
39 46 91 62 116 16 25 29 50 29 55 0 13 -121 -108 -224 -226 -493 -560 -833
-1160 -1071 -1890 -81 -249 -189 -699 -172 -716 9 -9 135 35 219 77 43 22 86
39 96 39 42 0 245 163 293 236 42 63 106 175 136 236 21 43 70 100 197 228 92
93 193 192 224 218 62 52 66 55 148 130 93 83 96 86 141 114 46 30 81 82 61
94 -6 4 -17 -1 -25 -11 -16 -22 -17 -16 -3 20 9 25 82 126 122 169 10 11 30
38 45 60 36 54 74 96 88 96 25 0 108 104 171 213 15 26 31 47 36 47 4 0 8 6 8
13 0 7 10 24 23 37 27 31 87 118 87 127 0 3 12 22 28 42 61 80 193 286 228
356 49 98 74 103 38 8 -17 -43 -16 -44 6 -68 27 -28 71 -33 90 -10 19 23 27
19 65 -40 19 -30 41 -55 49 -55 19 0 40 -26 26 -35 -5 -3 -10 -13 -10 -22 0
-15 -29 -59 -66 -96 -12 -12 -24 -32 -28 -44 -6 -19 -4 -23 13 -23 11 0 25 8
30 18 12 23 84 102 93 102 4 0 1 -18 -7 -39 -13 -36 -24 -167 -14 -165 26 6
49 17 49 23 0 7 16 29 56 77 19 23 24 24 42 13 19 -12 23 -11 36 6 8 11 17 17
21 13 4 -4 -2 -19 -14 -34 -11 -15 -21 -32 -21 -39 0 -16 -27 -27 -35 -14 -4
5 -11 7 -16 3 -6 -4 -6 -11 2 -20 9 -11 6 -23 -17 -56 -37 -53 -79 -95 -91
-91 -13 5 -29 -16 -36 -47 -13 -58 -36 -104 -60 -118 -14 -9 -30 -26 -36 -39
-6 -13 -36 -51 -66 -86 -182 -205 -272 -304 -287 -315 -17 -12 -108 -128 -108
-137 0 -3 7 -5 16 -5 18 0 90 56 149 116 62 63 234 250 256 278 21 27 49 35
49 14 0 -41 -154 -375 -202 -437 -10 -13 -18 -30 -18 -38 0 -8 -30 -60 -68
-115 -72 -107 -81 -121 -126 -189 -16 -24 -32 -46 -36 -49 -4 -3 -19 -24 -34
-47 -14 -24 -30 -43 -35 -43 -5 0 -17 -21 -27 -47 -10 -27 -29 -65 -42 -87
-21 -34 -21 -37 -4 -25 33 23 235 271 260 319 7 14 22 34 33 46 10 11 19 25
19 32 0 13 46 102 61 117 11 12 13 -17 1 -30 -5 -6 -15 -37 -22 -70 -11 -53
-39 -121 -73 -180 -25 -44 -88 -134 -96 -139 -5 -3 -19 -32 -31 -63 -13 -32
-32 -70 -42 -85 -10 -14 -18 -36 -18 -48 0 -20 -2 -21 -17 -9 -15 13 -16 11
-9 -23 6 -34 5 -38 -13 -38 -21 0 -51 -35 -51 -60 0 -8 -11 -31 -24 -51 -14
-20 -28 -52 -31 -72 -4 -21 -11 -37 -16 -37 -5 0 -9 -12 -9 -26 0 -45 20 -28
133 120 38 50 45 39 13 -20 -14 -27 -26 -58 -26 -70 0 -12 -7 -27 -15 -34 -16
-13 -21 -40 -7 -40 17 0 72 67 72 87 0 12 15 32 36 48 l36 27 -7 -48 c-4 -27
-13 -64 -21 -81 -13 -29 -13 -36 0 -62 8 -15 24 -31 36 -34 27 -7 25 -33 -4
-71 -13 -17 -26 -42 -30 -56 -13 -45 -44 -105 -63 -121 -27 -25 -73 -92 -113
-163 -68 -123 -109 -176 -141 -183 -30 -6 -94 -84 -137 -169 -11 -22 -28 -46
-36 -53 -9 -8 -16 -20 -16 -27 0 -8 -18 -41 -40 -73 -22 -32 -40 -66 -40 -75
0 -23 -21 -20 -27 4 -7 27 -20 25 -28 -2 -9 -35 -47 -130 -99 -251 -28 -67
-17 -74 20 -12 19 33 48 78 63 100 15 22 31 48 34 58 4 9 12 17 18 17 8 0 10
-16 5 -54 -4 -37 -1 -64 9 -87 14 -33 14 -32 15 50 0 79 10 136 31 171 5 8 12
22 15 30 3 8 9 24 14 35 5 11 11 27 14 35 33 82 203 296 248 313 9 3 28 24 42
45 13 22 62 78 108 125 46 46 88 93 94 103 10 17 12 17 36 2 23 -15 27 -16 32
-2 3 9 6 24 6 34 0 10 11 31 24 47 14 16 28 43 32 59 6 25 69 124 79 124 2 0
2 -24 -1 -52 -4 -31 -21 -84 -41 -124 -35 -72 -35 -72 -30 -185 2 -63 8 -124
12 -136 10 -32 -5 -28 -34 8 -16 21 -27 53 -34 105 -10 70 -27 101 -27 50 0
-29 19 -122 30 -151 4 -11 14 -36 21 -55 21 -54 12 -138 -22 -215 -23 -51 -39
-111 -39 -144 0 -20 -11 -58 -25 -86 -13 -27 -25 -63 -25 -79 0 -16 -9 -43
-19 -60 -29 -47 -41 -125 -41 -256 0 -126 5 -148 67 -278 23 -49 24 -55 9 -70
-18 -18 -65 -21 -145 -8 -34 5 -51 5 -48 -2 4 -5 25 -12 48 -15 23 -3 46 -10
52 -16 15 -15 -10 -41 -40 -41 -13 0 -64 -20 -112 -45 -48 -25 -95 -45 -103
-45 -9 0 -32 -7 -51 -15 -20 -8 -49 -15 -64 -15 -24 -1 -25 -2 -10 -11 9 -5
17 -19 17 -29 0 -23 15 -27 23 -6 3 8 28 22 56 30 27 8 60 20 72 27 12 6 60
13 106 14 77 2 87 5 113 30 25 24 30 26 36 12 8 -22 -4 -68 -23 -89 -8 -10
-13 -24 -10 -32 4 -9 -7 -48 -24 -88 -17 -40 -35 -85 -41 -101 -5 -15 -14 -27
-19 -27 -5 0 -24 -24 -43 -52 -45 -71 -114 -148 -132 -148 -8 0 -22 13 -32 29
-14 22 -21 27 -34 20 -9 -5 -27 -8 -40 -7 -19 3 -28 -7 -55 -62 -18 -36 -40
-101 -50 -145 -20 -94 -48 -130 -109 -140 -21 -3 -54 -13 -72 -21 -33 -14 -34
-15 -27 -62 6 -42 3 -51 -19 -75 -19 -20 -32 -26 -46 -22 -27 9 -27 -24 0 -58
27 -34 62 -116 85 -197 15 -54 18 -99 18 -260 -1 -221 -10 -263 -63 -281 -16
-6 -41 -27 -56 -47 -16 -20 -34 -41 -41 -45 -35 -22 -152 -209 -154 -247 0
-10 -3 -9 -9 5 -6 13 -9 15 -9 5 -2 -31 158 -228 347 -430 226 -241 462 -452
707 -636 112 -83 405 -278 460 -306 29 -15 111 -33 210 -47 43 -6 80 -23 174
-76 23 -13 161 -111 219 -155 75 -57 223 -122 429 -190 l193 -63 20 24 c11 13
36 53 56 88 l37 64 -13 69 c-14 78 -19 67 71 157 l46 46 -11 72 c-6 39 -14 75
-18 79 -5 4 -8 25 -8 46 0 22 -4 37 -9 34 -10 -6 -21 41 -21 90 0 18 -4 36
-10 39 -5 3 -10 14 -10 24 0 10 -14 44 -32 77 -30 56 -37 79 -57 215 -5 30
-14 66 -20 78 -7 12 -13 55 -14 96 -1 59 2 78 18 95 14 15 21 46 28 131 l10
111 26 -7 c14 -3 43 -10 63 -14 21 -5 44 -13 51 -20 19 -15 108 -41 119 -35 4
3 3 14 -2 25 -9 15 -7 19 5 19 9 0 15 -9 15 -25 0 -16 6 -25 15 -25 8 0 15 -4
15 -10 0 -5 14 -10 31 -10 17 0 28 -4 24 -10 -3 -6 0 -10 7 -10 8 0 22 -14 31
-30 20 -32 53 -54 103 -64 21 -5 31 -13 30 -24 -2 -24 33 -22 50 3 11 17 11
25 -1 49 -9 16 -13 38 -9 50 5 16 4 18 -6 9 -19 -17 -37 -6 -72 45 -29 42 -30
46 -13 58 26 19 14 93 -30 177 -19 37 -35 76 -35 85 0 10 -11 34 -24 53 -16
23 -23 44 -19 58 3 13 1 21 -7 21 -6 0 -9 8 -5 18 5 18 -42 108 -78 151 -7 9
-26 38 -41 64 -15 26 -40 62 -55 80 -16 18 -38 50 -49 73 -21 40 -44 72 -144
193 -74 90 -330 325 -409 377 -37 24 -69 50 -73 59 -3 8 -22 22 -43 31 -82 36
-109 50 -160 86 -70 47 -225 109 -283 112 -30 1 -58 11 -84 29 -21 15 -47 27
-56 27 -10 0 -24 7 -31 16 -11 14 -34 16 -156 12 l-143 -3 -55 -55 c-33 -32
-55 -63 -55 -76 0 -42 -36 -72 -96 -80 l-56 -7 -39 44 c-21 24 -38 50 -39 57
0 22 -49 110 -79 144 -16 18 -34 52 -40 74 -14 51 -7 69 89 259 40 77 76 156
80 175 14 56 70 214 80 224 5 5 33 13 62 17 40 5 56 4 64 -7 14 -18 34 -17 58
1 12 9 42 15 75 15 31 0 91 11 139 26 98 31 108 28 162 -43 32 -43 112 -93
148 -93 7 0 18 -14 24 -31 14 -41 36 -47 143 -39 50 4 189 4 310 1 246 -6 311
-6 570 -1 100 1 238 -3 312 -10 124 -12 133 -12 164 6 22 13 36 31 42 54 5 19
20 44 33 55 l25 20 -31 60 c-33 61 -45 91 -85 211 -42 122 -186 308 -294 379
-35 24 -48 27 -86 22 -25 -4 -57 -14 -72 -24 -45 -30 -152 -163 -159 -198 -3
-18 -19 -49 -36 -69 l-30 -36 -29 24 c-34 29 -130 67 -161 63 -17 -1 -27 7
-40 34 -25 54 -65 81 -164 113 -128 41 -119 31 -119 127 0 46 -6 104 -14 128
-7 24 -10 59 -6 77 4 26 1 38 -15 54 -24 24 -30 25 -91 3 -37 -13 -51 -15 -60
-6 -9 9 6 29 63 85 87 85 212 235 222 263 3 11 19 35 35 53 36 39 41 47 135
242 46 95 83 188 96 240 12 47 31 115 42 152 11 38 18 79 14 92 -7 27 27 67
79 93 16 9 47 29 68 45 43 34 62 32 70 -9 4 -20 -1 -38 -20 -66 -32 -46 -21
-64 14 -22 13 17 39 46 56 65 18 19 45 56 61 81 16 25 41 52 56 61 16 9 29 27
33 45 4 19 19 37 43 53 37 25 57 53 34 48 -7 -2 -15 3 -17 10 -9 23 18 12 48
-20 27 -30 29 -31 29 -10 0 12 -4 22 -10 22 -5 0 -10 8 -10 18 0 10 -7 28 -16
41 -15 21 -15 22 2 20 11 -2 25 0 32 4 9 6 12 -12 12 -81 0 -50 7 -125 16
-168 16 -77 16 -78 -5 -95 -11 -10 -21 -22 -21 -28 0 -21 28 -10 68 27 34 31
40 42 35 65 -5 25 -1 29 53 53 33 15 72 27 87 28 25 1 30 -4 47 -54 10 -30 22
-73 26 -95 5 -32 49 -125 58 -125 3 0 -38 158 -47 180 -11 30 -16 134 -6 152
8 14 7 24 -3 35 -19 24 -15 502 6 570 8 26 22 101 32 166 10 66 23 122 31 128
7 6 13 28 13 48 1 20 8 54 16 76 8 22 18 49 21 60 3 11 18 36 32 55 41 55 121
178 121 186 0 19 136 137 228 198 84 56 102 72 102 92 0 18 -4 23 -12 18 -41
-25 -202 -144 -250 -185 -31 -27 -61 -49 -66 -49 -28 0 -110 -97 -127 -151 -4
-12 -27 -46 -51 -76 -24 -30 -44 -59 -44 -65 0 -7 -11 -23 -24 -37 -49 -52
-84 -140 -95 -243 -6 -54 -11 -120 -11 -148 0 -70 -16 -61 -45 25 -30 86 -31
145 -6 261 18 84 70 254 91 299 6 11 16 38 24 60 7 22 30 69 49 105 47 87 82
157 98 200 7 19 29 52 48 73 22 25 31 41 24 48 -6 6 -35 -13 -84 -54 -84 -72
-309 -306 -309 -321 0 -5 -7 -17 -15 -26 -24 -26 -85 -131 -85 -145 0 -6 -12
-30 -28 -51 -15 -21 -36 -58 -46 -82 -11 -23 -24 -41 -30 -39 -18 6 -6 78 20
126 13 24 24 52 24 62 0 10 4 20 9 24 12 7 41 64 41 79 0 6 17 32 38 58 20 26
54 75 75 110 20 35 60 100 87 146 28 46 50 87 50 91 0 4 9 16 20 26 11 10 22
27 26 38 11 35 118 168 191 238 218 210 491 398 666 460 47 16 65 35 49 51
-12 12 -78 -11 -186 -65 -73 -36 -145 -55 -185 -49 -20 3 -40 -3 -59 -17 -38
-27 -110 -58 -192 -83 -36 -10 -103 -34 -150 -52 -47 -19 -110 -41 -140 -51
-279 -87 -471 -196 -501 -285 -14 -39 -39 -48 -39 -14 0 40 28 90 68 121 78
59 100 73 187 118 50 26 99 55 111 66 11 10 26 19 33 19 6 0 42 16 79 35 37
19 87 41 112 50 24 9 60 25 78 35 18 11 38 20 43 20 6 0 54 21 107 46 53 26
135 61 182 79 47 18 125 51 173 74 49 22 96 41 105 41 15 1 89 26 217 73 22 9
52 13 66 10 14 -3 48 3 74 12 39 13 54 14 76 4 23 -9 44 -7 111 10 46 11 113
23 150 27 38 3 72 12 79 20 6 8 23 14 38 14 15 0 32 5 39 12 21 21 170 68 321
100 76 17 102 46 30 34 -24 -4 -71 -12 -104 -17 -91 -14 -141 -25 -243 -55
-74 -22 -97 -26 -112 -16 -10 6 -34 9 -54 5 -21 -3 -36 -2 -36 5 0 20 123 101
156 102 6 0 64 25 128 55 127 60 217 87 311 91 33 2 116 8 185 14 84 7 149 7
198 0 147 -20 308 -8 199 15 -17 4 -48 17 -67 29 -33 20 -48 21 -240 21 -198
-1 -209 -2 -326 -33 -67 -17 -164 -46 -215 -62 -144 -47 -178 -53 -221 -39
-33 11 -40 10 -57 -6 -19 -17 -22 -16 -89 29 -38 25 -74 46 -79 46 -5 0 -24
18 -41 39 -18 22 -57 55 -87 73 -41 25 -57 42 -66 68 -6 19 -17 42 -24 50 -12
15 -35 96 -35 124 0 11 9 16 26 16 14 0 37 9 51 20 14 11 31 20 37 19 6 0 36
-19 68 -42 31 -23 78 -58 104 -77 26 -19 65 -50 86 -69 30 -26 42 -31 51 -22
15 15 -100 126 -195 187 -37 24 -68 46 -68 48 0 3 19 14 43 24 23 11 51 27 62
35 19 15 19 16 -11 43 -17 17 -37 50 -44 77 -17 55 -23 57 -133 28 -48 -12
-121 -20 -216 -24 -157 -5 -142 -9 -197 61 l-26 32 -126 -1 c-70 -1 -172 -5
-226 -10z m670 -759 c17 -19 49 -66 73 -105 24 -38 49 -74 57 -78 8 -4 14 -14
14 -21 0 -13 -53 -56 -70 -56 -6 0 -34 -13 -63 -30 -30 -16 -65 -30 -78 -30
-35 -1 -214 -65 -276 -100 -30 -17 -134 -62 -231 -101 -97 -38 -185 -74 -196
-80 -13 -8 -22 -7 -30 1 -14 14 16 68 84 155 26 33 58 80 71 104 13 23 35 62
49 86 78 135 94 151 118 118 9 -12 16 -15 26 -8 55 40 73 49 117 53 27 2 52 9
55 13 3 5 13 9 23 9 10 0 39 16 64 35 56 43 86 44 131 5 31 -28 35 -29 44 -13
8 13 4 24 -14 46 -13 16 -24 33 -24 38 0 15 24 -2 56 -41z m184 -66 l0 -37 78
7 77 6 -30 -24 c-16 -13 -54 -32 -83 -42 -46 -16 -54 -17 -63 -4 -5 8 -7 28
-4 44 3 16 5 41 5 57 0 16 5 29 10 29 6 0 10 -16 10 -36z m-620 -20 c0 -14
-12 -19 -23 -8 -9 9 4 35 14 28 5 -3 9 -12 9 -20z m810 16 c0 -5 -8 -10 -17
-10 -15 0 -16 2 -3 10 19 12 20 12 20 0z m-2543 -173 c18 -13 6 -86 -18 -113
-11 -11 -19 -25 -19 -31 0 -5 -24 -16 -52 -24 -46 -12 -56 -19 -71 -51 -18
-37 -20 -38 -75 -38 -31 0 -81 4 -111 10 -162 28 -192 30 -212 20 -11 -6 -41
-15 -67 -20 -26 -5 -74 -16 -107 -25 -33 -9 -73 -19 -90 -21 l-30 -5 39 35
c22 19 51 37 65 40 15 2 53 23 86 44 59 39 219 102 260 102 11 0 29 7 39 15
11 8 30 15 42 15 13 0 26 5 30 11 5 8 28 10 72 6 42 -4 70 -3 79 4 7 6 13 8
13 5 0 -4 12 4 27 18 21 19 33 24 57 19 17 -3 37 -10 43 -16z m-837 -514 c-1
-14 -107 -190 -131 -218 -9 -11 -31 -47 -48 -80 -18 -33 -41 -69 -52 -81 -10
-11 -19 -24 -19 -30 0 -5 -25 -40 -55 -79 -115 -146 -181 -228 -196 -243 -21
-23 -127 -152 -169 -207 -19 -25 -45 -55 -57 -67 -13 -12 -23 -25 -23 -29 0
-25 -99 -137 -122 -139 -13 0 -9 16 10 38 11 12 41 47 68 78 27 31 58 67 69
79 11 12 27 34 35 48 8 15 39 52 67 84 51 57 88 103 128 159 11 15 32 42 48
60 15 17 27 36 27 41 0 6 10 18 21 29 12 10 32 35 45 54 13 19 37 53 53 75 72
95 103 143 160 247 12 20 25 39 31 43 6 3 19 23 29 43 45 89 53 102 67 102 8
0 14 -3 14 -7z m1627 -150 c-9 -9 -20 -13 -24 -9 -4 4 -1 11 7 16 25 16 35 11
17 -7z m411 -15 c-3 -7 -14 -14 -26 -16 -12 -2 -22 -8 -22 -13 0 -5 -13 -9
-29 -9 -16 0 -34 -7 -41 -15 -7 -8 -23 -15 -35 -15 -13 0 -25 -7 -29 -15 -6
-17 -42 -20 -51 -5 -3 6 5 14 18 19 14 6 28 15 32 20 3 6 16 11 29 11 12 0 26
3 30 7 11 11 88 41 109 42 11 1 17 -4 15 -11z m-473 -28 c-3 -5 -10 -10 -16
-10 -5 0 -9 5 -9 10 0 6 7 10 16 10 8 0 12 -4 9 -10z m345 -90 c0 -5 -7 -10
-15 -10 -8 0 -15 5 -15 10 0 6 7 10 15 10 8 0 15 -4 15 -10z m50 -15 c0 -8 -4
-15 -10 -15 -5 0 -10 7 -10 15 0 8 5 15 10 15 6 0 10 -7 10 -15z m-330 -46 c0
-24 -23 -21 -28 4 -2 10 3 17 12 17 10 0 16 -9 16 -21z m305 11 c5 -8 11 -7
21 1 9 7 14 8 14 1 0 -26 -25 -71 -80 -143 -33 -43 -60 -83 -60 -89 0 -5 -9
-10 -20 -10 -27 0 -25 14 10 65 17 24 30 50 30 59 0 24 -20 29 -41 10 -15 -14
-19 -14 -19 -2 0 8 16 27 35 42 19 16 35 33 35 40 0 11 34 32 57 35 6 0 15 -4
18 -9z m-125 -30 c0 -32 -23 -42 -34 -15 -8 21 3 45 20 45 9 0 14 -11 14 -30z
m-341 -167 c1 -26 3 -64 4 -83 2 -26 -2 -35 -15 -38 -16 -3 -18 6 -18 81 0 46
3 87 6 90 13 13 21 -3 23 -50z m-1059 -49 c0 -15 -6 -24 -15 -24 -9 0 -20 -11
-25 -25 -5 -14 -16 -25 -25 -25 -22 0 -18 37 5 50 11 6 20 16 20 23 0 17 21
38 32 31 4 -3 8 -16 8 -30z m-1743 -756 c-3 -8 -6 -5 -6 6 -1 11 2 17 5 13 3
-3 4 -12 1 -19z m2773 -21 c0 -7 -15 -27 -32 -43 -18 -17 -46 -54 -63 -84 -36
-64 -62 -93 -76 -85 -5 4 -7 16 -3 28 25 84 174 241 174 184z m-2414 -194
c-10 -10 -19 5 -10 18 6 11 8 11 12 0 2 -7 1 -15 -2 -18z m2325 -198 c-2 -29
-9 -53 -17 -58 -23 -13 -16 -28 11 -21 22 5 25 3 25 -20 0 -14 -3 -26 -7 -26
-8 -1 -93 -75 -140 -121 -12 -12 -19 -28 -16 -35 8 -22 -5 -44 -22 -38 -14 6
-14 8 1 19 11 8 13 14 6 19 -12 7 -34 -26 -30 -46 2 -8 -6 -12 -24 -10 -24 3
-28 0 -28 -22 0 -14 -5 -26 -10 -26 -6 0 -28 -17 -49 -37 -21 -21 -55 -51 -75
-67 -61 -48 -41 -66 22 -18 20 15 41 30 47 34 5 5 33 26 60 49 28 22 69 49 93
60 33 14 44 25 48 49 4 16 10 30 15 30 5 0 9 5 9 12 0 6 11 26 26 45 29 38 63
43 91 15 10 -11 25 -21 34 -24 13 -5 15 -17 11 -61 -3 -36 1 -72 12 -103 9
-26 16 -57 16 -69 0 -34 28 -82 51 -88 18 -5 16 -10 -23 -49 -27 -28 -65 -53
-103 -68 -66 -26 -100 -46 -127 -72 -10 -10 -29 -18 -43 -18 -37 0 -256 -113
-381 -196 -61 -41 -116 -74 -123 -74 -35 0 -303 -161 -346 -209 -163 -178
-182 -206 -205 -289 -9 -37 -9 -48 5 -68 24 -37 35 -29 29 20 -5 36 -1 55 22
102 16 32 47 76 69 98 38 39 39 40 43 17 3 -19 8 -22 34 -19 27 4 32 1 44 -28
8 -18 18 -35 24 -39 17 -10 12 -32 -26 -110 -19 -40 -34 -84 -32 -95 l3 -22
27 21 c15 12 30 32 34 44 3 12 16 36 29 52 12 17 26 41 30 54 4 14 26 45 49
70 23 25 59 67 80 94 53 66 79 64 102 -5 14 -44 16 -76 11 -207 -6 -153 -6
-155 -38 -200 -66 -94 -76 -101 -146 -101 -53 0 -63 3 -64 18 0 13 -2 12 -9
-5 -12 -30 -14 -29 -38 11 -11 18 -29 36 -41 39 -26 6 -26 0 -1 -38 11 -16 20
-33 20 -36 0 -16 -35 -18 -56 -4 -26 17 -44 19 -44 7 0 -5 16 -16 35 -25 35
-17 50 -17 153 -1 30 5 33 3 28 -14 -4 -11 0 -24 9 -32 22 -18 19 -27 -14 -38
-22 -8 -31 -7 -34 2 -4 9 -20 12 -56 8 -68 -6 -134 13 -205 61 -76 51 -114 94
-122 137 -9 47 -30 95 -36 84 -3 -5 -6 -61 -8 -124 -6 -286 -2 -305 71 -380
66 -67 97 -112 104 -153 7 -33 2 -43 -50 -114 -149 -201 -159 -213 -183 -213
-19 0 -82 70 -82 91 0 24 -51 120 -60 114 -14 -9 -18 155 -7 240 10 75 28 140
48 173 10 18 19 42 19 52 0 10 5 22 11 26 7 4 9 23 5 50 -3 24 -1 55 4 68 6
18 5 28 -6 36 -7 7 -14 21 -14 32 0 11 -8 32 -19 46 -10 15 -21 39 -25 55 -3
15 -13 27 -20 27 -8 0 -16 7 -20 15 -3 8 -14 15 -24 15 -24 0 -52 91 -52 171
0 57 14 96 46 124 6 6 17 39 24 75 14 68 47 144 85 195 12 17 30 46 40 65 10
18 24 40 31 48 8 7 14 20 14 27 0 8 27 45 60 82 33 37 98 111 144 163 116 133
295 310 313 310 8 0 23 -5 35 -11 16 -9 25 -6 47 14 24 22 114 90 171 127 12
8 30 22 39 31 9 9 31 21 50 27 18 7 54 27 80 45 26 19 83 51 126 73 44 21 86
45 93 52 8 7 18 10 23 6 5 -3 12 1 15 10 4 10 19 15 46 14 28 0 44 5 50 16 6
10 19 16 31 14 20 -3 22 -8 18 -53z m123 -230 c-4 -8 -10 -15 -15 -15 -5 0 -9
7 -9 15 0 8 7 15 15 15 9 0 12 -6 9 -15z m116 -315 c0 -5 -4 -10 -10 -10 -5 0
-10 5 -10 10 0 6 5 10 10 10 6 0 10 -4 10 -10z m-477 -386 c-9 -15 -19 -21
-21 -15 -4 13 16 41 29 41 5 0 2 -12 -8 -26z m-525 -311 c-2 -9 -8 -18 -15
-20 -7 -3 -9 3 -6 16 6 25 26 28 21 4z m-45 -75 c6 -21 -4 -48 -19 -48 -14 0
-20 41 -7 53 10 11 21 8 26 -5z m-393 -562 c48 -46 171 -107 228 -114 54 -6
62 -13 62 -64 0 -33 13 -78 40 -143 5 -11 12 -36 15 -55 4 -19 19 -54 34 -77
14 -23 41 -67 60 -98 19 -30 49 -69 68 -85 39 -35 164 -100 191 -100 26 0 58
-25 44 -34 -14 -9 -112 17 -212 57 -110 43 -144 62 -200 112 -28 25 -59 45
-70 45 -34 0 -89 58 -101 106 -7 25 -21 52 -33 62 -33 27 -47 49 -50 76 -2 14
-16 40 -32 59 -61 71 -67 82 -82 131 -8 28 -17 75 -19 104 -6 63 6 67 57 18z
m-440 -270 c0 -83 6 -107 24 -100 8 3 11 -5 8 -28 -3 -33 12 -77 48 -133 10
-16 19 -37 19 -46 1 -15 29 -56 85 -125 15 -18 24 -38 21 -46 -3 -7 6 -29 20
-48 25 -34 32 -60 16 -60 -5 0 -39 -25 -77 -56 -82 -67 -104 -79 -138 -70 -43
11 -96 69 -96 105 0 18 -11 56 -24 84 -43 93 -50 144 -39 261 8 83 15 113 31
136 12 16 22 43 22 61 0 30 57 139 72 139 5 0 8 -33 8 -74z m888 -33 c-3 -61
-5 -68 -25 -71 -29 -4 -76 57 -71 95 2 22 9 29 33 34 67 15 66 15 63 -58z
m-828 12 c0 -14 -4 -25 -8 -25 -4 0 -9 11 -10 25 -1 14 3 25 8 25 6 0 10 -11
10 -25z m75 -180 c0 -37 -12 -39 -24 -4 -15 44 -14 51 7 38 10 -6 18 -22 17
-34z m272 -401 c8 -22 -22 -44 -59 -44 -33 0 -46 23 -28 45 17 21 79 20 87 -1z
m386 -123 c66 -29 62 -61 -8 -68 -27 -3 -37 3 -64 37 -18 23 -30 47 -27 55 6
16 10 15 99 -24z m282 -140 c56 -31 72 -61 32 -61 -60 0 -107 33 -107 74 0 22
18 19 75 -13z m-1155 -996 c0 -16 -27 -32 -37 -21 -7 7 16 36 28 36 5 0 9 -7
9 -15z m2166 -1400 c6 -24 -9 -55 -26 -55 -4 0 -20 10 -35 22 l-28 22 23 18
c32 26 58 23 66 -7z m-714 -1537 c-21 -21 -32 -3 -15 22 16 22 18 23 21 6 2
-10 -1 -23 -6 -28z"/>
<path d="M5276 9572 c-3 -6 -1 -14 5 -17 14 -9 20 -2 10 14 -6 8 -11 9 -15 3z"/>
<path d="M5290 9510 c0 -5 7 -10 15 -10 8 0 15 5 15 10 0 6 -7 10 -15 10 -8 0
-15 -4 -15 -10z"/>
<path d="M5363 9513 c-18 -7 -16 -30 3 -37 23 -9 24 -8 24 13 0 22 -9 30 -27
24z"/>
<path d="M3830 7019 c0 -5 5 -7 10 -4 6 3 10 8 10 11 0 2 -4 4 -10 4 -5 0 -10
-5 -10 -11z"/>
<path d="M3410 6710 c0 -5 5 -10 10 -10 6 0 10 5 10 10 0 6 -4 10 -10 10 -5 0
-10 -4 -10 -10z"/>
<path d="M3308 6593 c7 -3 16 -2 19 1 4 3 -2 6 -13 5 -11 0 -14 -3 -6 -6z"/>
<path d="M3199 6503 c-38 -36 -69 -70 -69 -75 0 -17 17 -7 55 33 22 23 56 56
75 75 19 19 29 34 22 34 -8 0 -45 -30 -83 -67z"/>
<path d="M2765 5467 c-4 -10 -5 -21 -1 -24 10 -10 18 4 13 24 -4 17 -4 17 -12
0z"/>
<path d="M7838 9755 c-6 -14 -18 -25 -25 -25 -11 0 -13 -8 -8 -32 13 -59 24
-77 54 -93 40 -20 41 -20 41 13 0 15 5 33 11 39 8 8 8 17 0 31 -8 14 -8 29 -1
47 13 34 6 45 -31 45 -22 0 -32 -7 -41 -25z"/>
<path d="M7970 9645 c-15 -18 -5 -35 21 -35 14 0 19 7 19 25 0 28 -21 33 -40
10z"/>
<path d="M8441 9241 c-14 -4 -26 -12 -29 -19 -6 -19 23 -14 43 8 10 11 16 20
14 19 -2 -1 -15 -4 -28 -8z"/>
<path d="M8332 9229 c2 -7 10 -15 17 -17 8 -3 12 1 9 9 -2 7 -10 15 -17 17 -8
3 -12 -1 -9 -9z"/>
<path d="M7365 9101 c-84 -33 -307 -150 -350 -183 -88 -68 -126 -103 -116
-106 12 -4 76 35 121 74 39 34 121 88 164 108 73 34 181 78 229 92 28 9 47 21
47 29 0 21 -15 19 -95 -14z"/>
<path d="M8180 9000 c-1 -50 -11 -70 -36 -70 -13 0 -24 -5 -24 -11 0 -5 5 -7
10 -4 6 4 18 -3 28 -14 23 -28 67 -19 51 11 -6 10 -8 31 -4 46 3 17 0 35 -9
47 -15 19 -15 19 -16 -5z"/>
<path d="M6118 8887 c-26 -17 -46 -33 -44 -35 6 -5 115 52 115 61 2 15 -25 5
-71 -26z"/>
<path d="M7613 8830 c-35 -17 -72 -30 -83 -30 -41 0 -386 -206 -434 -259 -47
-52 30 -32 127 34 36 24 85 54 109 67 24 13 62 36 85 51 24 15 48 27 54 27 6
0 23 6 37 14 67 35 141 66 159 66 26 0 47 25 39 45 -8 21 -22 19 -93 -15z"/>
<path d="M8305 8823 c29 -27 51 -37 84 -41 31 -4 42 -2 37 7 -4 6 -23 11 -41
11 -24 0 -45 9 -68 30 -49 43 -60 37 -12 -7z"/>
<path d="M4791 8713 c-53 -54 -113 -117 -134 -141 -35 -40 -48 -72 -28 -72 12
0 281 286 281 300 0 25 -29 4 -119 -87z"/>
<path d="M5746 8685 c-27 -13 -56 -23 -65 -22 -45 3 -239 -128 -219 -148 3 -4
33 9 66 28 32 19 106 57 163 85 57 27 113 57 124 66 l20 15 -20 0 c-11 0 -42
-10 -69 -24z"/>
<path d="M7772 8578 c-14 -14 -16 -48 -2 -48 5 0 16 14 25 30 12 24 13 30 2
30 -7 0 -18 -5 -25 -12z"/>
<path d="M5340 8441 c-14 -10 -51 -28 -82 -40 -50 -20 -56 -26 -48 -41 9 -18
12 -17 54 6 46 26 127 94 110 94 -5 0 -20 -9 -34 -19z"/>
<path d="M7648 8396 c-28 -35 -36 -66 -18 -66 11 0 53 77 48 91 -2 5 -15 -7
-30 -25z"/>
<path d="M6755 8281 c-22 -16 -65 -45 -95 -65 -58 -37 -170 -136 -335 -295
-55 -53 -136 -128 -180 -168 -43 -40 -77 -74 -74 -77 10 -11 133 84 243 187
61 57 131 122 155 143 25 22 74 66 110 100 92 85 137 124 145 124 4 0 22 11
40 25 18 14 38 25 44 25 7 0 12 7 12 15 0 22 -20 18 -65 -14z"/>
<path d="M7680 8299 c0 -5 5 -7 10 -4 6 3 10 8 10 11 0 2 -4 4 -10 4 -5 0 -10
-5 -10 -11z"/>
<path d="M2736 8204 c-4 -14 -4 -29 -1 -32 7 -7 35 30 32 42 -7 21 -25 15 -31
-10z"/>
<path d="M7575 8191 c-3 -5 -1 -12 4 -15 5 -3 11 1 15 9 6 16 -9 21 -19 6z"/>
<path d="M2700 8149 c0 -5 5 -7 10 -4 6 3 10 8 10 11 0 2 -4 4 -10 4 -5 0 -10
-5 -10 -11z"/>
<path d="M7782 8135 c-18 -39 -14 -50 8 -30 20 18 28 55 12 55 -5 0 -14 -11
-20 -25z"/>
<path d="M7502 8078 c-14 -14 -16 -28 -2 -28 5 0 14 9 20 20 12 22 1 27 -18 8z"/>
<path d="M7716 8038 c-3 -7 -11 -33 -20 -58 -8 -25 -22 -92 -31 -150 -9 -58
-22 -132 -30 -165 -28 -121 -31 -141 -30 -168 1 -15 5 -27 8 -27 4 0 14 0 22
0 10 0 15 10 15 33 0 21 7 36 19 44 22 14 29 46 36 168 14 245 17 274 31 286
19 15 18 49 -1 49 -9 0 -17 -6 -19 -12z"/>
<path d="M5890 7765 c-8 -9 -8 -15 -2 -15 12 0 26 19 19 26 -2 2 -10 -2 -17
-11z"/>
<path d="M5641 7504 c0 -11 3 -14 6 -6 3 7 2 16 -1 19 -3 4 -6 -2 -5 -13z"/>
<path d="M7736 7488 c-14 -55 3 -168 26 -168 8 0 9 27 5 87 -6 88 -19 123 -31
81z"/>
<path d="M5710 7419 c0 -11 5 -17 10 -14 6 3 10 13 10 21 0 8 -4 14 -10 14 -5
0 -10 -9 -10 -21z"/>
<path d="M5582 7373 c-7 -12 -12 -30 -12 -40 1 -13 5 -11 16 10 8 16 13 34 11
40 -2 7 -9 3 -15 -10z"/>
<path d="M7602 7350 c0 -14 2 -19 5 -12 2 6 2 18 0 25 -3 6 -5 1 -5 -13z"/>
<path d="M6070 7250 c-30 -4 -73 -5 -95 -3 -38 5 -60 -1 -195 -52 -25 -9 -69
-21 -99 -26 -63 -10 -81 -23 -81 -57 0 -24 -11 -68 -32 -120 -4 -13 -17 -26
-27 -29 -23 -6 -40 -42 -32 -66 6 -17 8 -16 19 8 10 21 18 26 40 23 25 -3 27
-6 29 -53 2 -63 13 -115 23 -115 5 0 10 21 13 48 7 59 30 158 40 168 4 4 7 18
7 32 0 23 24 51 43 52 11 0 -2 -67 -20 -106 -16 -36 -14 -135 3 -141 6 -2 21
24 34 57 l23 60 36 -7 c20 -4 51 -7 68 -6 27 1 34 -3 39 -23 8 -31 17 -30 34
1 18 34 47 41 72 19 39 -36 40 -51 8 -87 -16 -19 -30 -37 -30 -41 0 -12 22 -6
47 14 14 11 36 20 49 20 12 0 26 5 29 10 10 16 25 1 25 -25 0 -13 5 -36 11
-52 l12 -28 8 29 c12 44 37 64 86 72 34 5 48 3 63 -11 18 -16 20 -16 36 21 9
23 17 68 18 109 1 68 2 70 26 67 87 -10 197 -111 259 -236 l25 -51 4 42 c3 41
4 42 33 36 21 -4 35 0 50 13 21 19 21 18 45 -11 20 -25 26 -28 34 -15 13 21
13 28 -7 61 -15 25 -15 31 -4 38 7 5 21 6 31 4 10 -3 31 4 47 15 15 10 41 27
56 36 15 9 25 21 23 25 -3 5 -41 10 -84 13 -74 4 -82 7 -175 64 -54 32 -124
73 -155 90 -62 34 -73 55 -46 85 30 33 4 44 -44 20 -48 -25 -110 -27 -191 -7
-74 18 -163 24 -231 16z"/>
<path d="M10107 7203 c-19 -26 -71 -95 -116 -153 -44 -58 -120 -157 -168 -220
-48 -63 -90 -117 -93 -120 -6 -6 -196 -256 -253 -334 -20 -28 -43 -58 -50 -66
-6 -8 -36 -49 -66 -90 -30 -41 -57 -77 -61 -80 -6 -5 -45 -56 -129 -169 -19
-25 -37 -48 -40 -51 -3 -3 -42 -52 -86 -110 -43 -58 -83 -106 -87 -108 -4 -2
-8 -10 -8 -18 0 -8 -3 -14 -7 -14 -5 0 -21 -20 -38 -45 -16 -24 -33 -45 -37
-45 -5 0 -8 -6 -8 -14 0 -8 -4 -16 -8 -18 -5 -1 -28 -29 -53 -62 -24 -32 -62
-82 -84 -111 -22 -28 -60 -79 -84 -111 -25 -32 -48 -60 -53 -62 -4 -2 -8 -10
-8 -17 0 -7 -3 -15 -8 -17 -4 -1 -22 -22 -40 -44 -36 -47 -41 -89 -18 -151 7
-21 19 -58 26 -83 7 -25 19 -64 26 -88 10 -29 13 -75 10 -140 -2 -53 -5 -107
-5 -119 -1 -26 -26 -31 -35 -7 -3 9 -6 50 -6 92 0 86 -10 113 -33 94 -20 -17
-24 -4 -26 88 -1 49 -7 80 -17 91 -8 8 -14 25 -14 36 0 11 -7 26 -15 33 -12
10 -15 10 -15 -4 0 -9 -3 -16 -7 -16 -5 0 -19 -17 -33 -37 -14 -20 -29 -41
-35 -47 -9 -10 -61 -78 -172 -225 -23 -31 -46 -61 -50 -66 -4 -6 -21 -28 -38
-50 -16 -22 -33 -41 -37 -43 -4 -2 -8 -11 -8 -21 0 -9 -13 -43 -30 -76 -16
-33 -30 -65 -30 -71 0 -5 -13 -23 -30 -39 -16 -16 -30 -34 -30 -41 0 -7 -10
-21 -22 -31 -25 -21 -39 -41 -64 -93 -23 -47 -69 -110 -129 -177 -27 -30 -54
-66 -58 -79 -5 -13 -15 -24 -22 -24 -8 0 -31 -11 -51 -25 -20 -14 -43 -25 -50
-25 -8 0 -14 -3 -14 -7 0 -5 -16 -26 -36 -48 -64 -72 -60 -76 34 -30 49 24 94
51 101 59 8 9 18 16 24 16 5 0 22 12 36 28 15 15 40 38 56 52 17 14 55 58 85
98 30 39 58 72 62 72 5 0 8 8 8 18 0 21 29 52 48 52 15 0 16 -36 2 -45 -5 -3
-10 -13 -10 -20 0 -8 -14 -34 -31 -58 -23 -33 -29 -50 -24 -70 9 -35 25 -35
25 0 0 17 3 24 10 17 5 -5 6 -29 1 -59 -5 -28 -9 -42 -10 -32 -1 22 -21 22
-21 -1 0 -9 -11 -34 -25 -54 -14 -20 -25 -39 -25 -42 0 -9 -75 -131 -82 -134
-5 -2 -8 -9 -8 -15 0 -7 -19 -32 -41 -57 -40 -45 -78 -96 -113 -154 -10 -17
-22 -33 -25 -36 -4 -3 -12 -13 -18 -23 -14 -26 -185 -197 -197 -197 -5 0 -17
-6 -25 -14 -25 -22 -98 -62 -217 -120 -88 -43 -125 -55 -175 -59 -55 -5 -67
-10 -89 -35 -47 -55 -60 -72 -60 -81 0 -5 -3 -11 -8 -13 -4 -1 -39 -43 -77
-93 -38 -49 -73 -91 -77 -93 -4 -2 -8 -8 -8 -13 0 -8 -18 -31 -55 -73 -14 -15
-155 -203 -184 -243 l-22 -33 28 -25 c15 -13 32 -25 37 -25 10 0 49 -33 176
-151 52 -48 127 -111 165 -140 142 -105 405 -357 405 -387 0 -10 7 -28 16 -41
15 -21 15 -25 -5 -52 -15 -20 -21 -43 -21 -82 0 -52 2 -56 43 -89 23 -19 62
-45 87 -58 39 -20 54 -22 118 -16 72 6 76 5 144 -32 66 -35 92 -58 268 -241
19 -20 47 -53 62 -72 15 -20 41 -51 58 -68 31 -30 32 -31 63 -14 34 17 263
167 382 249 345 239 767 645 1067 1024 641 812 1023 1796 1108 2860 14 174 14
616 0 790 -29 358 -97 733 -191 1059 -54 185 -165 500 -183 518 -2 2 -19 -18
-39 -44z m-1972 -2780 c6 -120 0 -544 -8 -587 -3 -15 43 -20 56 -7 6 6 21 11
33 11 13 0 26 4 29 10 3 5 21 17 40 26 48 22 175 175 175 210 0 9 12 42 27 73
21 44 27 74 30 141 5 117 11 150 28 150 32 0 19 -277 -15 -325 -3 -5 -14 -31
-24 -58 -20 -54 -97 -142 -171 -196 -52 -38 -156 -91 -179 -91 -26 0 -44 -36
-49 -95 -3 -33 -12 -87 -22 -120 -9 -33 -20 -78 -24 -100 -4 -23 -10 -45 -14
-51 -3 -6 -9 -26 -12 -45 -3 -19 -10 -38 -16 -44 -5 -5 -9 -21 -9 -37 0 -15
-13 -54 -30 -86 -16 -33 -30 -69 -30 -80 0 -11 -27 -57 -60 -101 -53 -69 -70
-85 -132 -115 -71 -36 -93 -41 -122 -30 -22 8 -20 24 3 24 25 0 44 25 36 49
-4 15 6 31 39 64 52 52 96 119 96 145 0 10 4 22 9 27 22 23 43 188 59 467 7
127 12 146 31 133 16 -9 14 -293 -2 -325 -7 -14 -14 -61 -15 -105 -2 -79 -12
-127 -38 -177 -8 -14 -14 -37 -14 -50 0 -12 -9 -34 -20 -48 -19 -25 -28 -90
-12 -90 18 0 54 49 88 120 9 19 20 43 25 52 5 10 9 28 9 40 0 12 6 29 13 37 7
9 19 41 26 71 8 30 22 69 32 86 11 17 19 47 19 67 0 20 5 48 11 64 25 64 32
158 38 538 6 339 10 408 25 453 9 28 21 52 25 52 5 0 12 -66 16 -147z"/>
<path d="M1840 7038 c-25 -17 -37 -35 -45 -68 -15 -56 -57 -143 -90 -181 -13
-16 -26 -38 -30 -49 -3 -11 -9 -20 -13 -20 -4 0 -23 -14 -42 -30 -19 -16 -37
-30 -40 -30 -6 0 -40 -55 -40 -64 0 -3 5 -6 10 -6 6 0 10 7 10 16 0 11 6 13
19 9 20 -6 61 13 61 28 0 5 12 25 28 45 15 20 30 41 34 47 21 27 111 172 158
252 45 78 39 91 -20 51z"/>
<path d="M7725 7040 c3 -5 8 -10 11 -10 2 0 4 5 4 10 0 6 -5 10 -11 10 -5 0
-7 -4 -4 -10z"/>
<path d="M7720 6981 c0 -11 5 -23 10 -26 6 -4 10 5 10 19 0 14 -4 26 -10 26
-5 0 -10 -9 -10 -19z"/>
<path d="M8386 6943 c-4 -31 -4 -58 -1 -61 10 -11 18 9 23 56 6 70 -14 74 -22
5z"/>
<path d="M7742 6869 c2 -18 9 -34 16 -37 10 -3 13 5 10 29 -2 18 -9 34 -16 37
-10 3 -13 -5 -10 -29z"/>
<path d="M1600 6830 c-18 -23 -30 -44 -26 -47 8 -8 65 57 66 75 0 19 -6 15
-40 -28z"/>
<path d="M5760 6850 c0 -11 5 -20 10 -20 6 0 10 9 10 20 0 11 -4 20 -10 20 -5
0 -10 -9 -10 -20z"/>
<path d="M5821 6851 c-8 -14 -7 -22 4 -31 19 -16 35 -4 35 26 0 29 -25 32 -39
5z"/>
<path d="M5898 6785 c-8 -41 2 -63 22 -50 7 4 8 11 1 18 -5 7 -11 26 -13 42
-3 28 -4 28 -10 -10z"/>
<path d="M5670 6781 c0 -12 5 -21 10 -21 6 0 10 6 10 14 0 8 -4 18 -10 21 -5
3 -10 -3 -10 -14z"/>
<path d="M5852 6784 c1 -9 9 -19 16 -22 9 -3 13 2 10 14 -1 9 -9 19 -16 22 -9
3 -13 -2 -10 -14z"/>
<path d="M1545 6760 c4 -6 11 -8 16 -5 14 9 11 15 -7 15 -8 0 -12 -5 -9 -10z"/>
<path d="M7840 6726 c0 -14 5 -28 10 -31 6 -3 10 5 10 19 0 14 -4 28 -10 31
-6 3 -10 -5 -10 -19z"/>
<path d="M8452 6720 c0 -19 2 -27 5 -17 2 9 2 25 0 35 -3 9 -5 1 -5 -18z"/>
<path d="M1460 6725 c-14 -8 -32 -18 -40 -22 -19 -9 -184 -154 -188 -165 -2
-5 -26 -24 -53 -42 -45 -30 -105 -80 -203 -168 -22 -21 -45 -38 -51 -38 -5 0
-26 -15 -45 -33 -243 -222 -616 -495 -782 -572 -91 -41 -85 -24 -94 -310 -6
-230 -2 -248 45 -195 17 19 31 40 31 46 0 17 76 97 88 93 6 -2 -6 -23 -28 -47
-22 -24 -40 -47 -40 -52 0 -10 -15 -30 -62 -83 -26 -29 -28 -38 -27 -107 1
-41 4 -85 7 -97 6 -21 10 -19 47 30 45 57 58 80 105 177 17 36 46 90 65 120
19 30 42 71 52 90 10 19 26 44 36 55 10 11 21 31 24 45 4 14 12 31 20 38 7 7
13 19 13 25 0 7 37 73 81 147 45 74 93 155 107 180 14 25 28 47 31 50 4 3 26
35 51 73 24 37 46 67 49 67 4 0 12 12 19 28 10 22 102 103 276 244 140 113
231 191 346 298 75 70 93 83 124 100 17 8 32 21 34 28 5 16 -7 15 -38 -3z
m-930 -849 c0 -20 -14 -33 -31 -29 -20 5 -24 15 -12 26 7 8 43 10 43 3z m-410
-250 c0 -15 -37 -32 -47 -22 -9 8 17 36 33 36 8 0 14 -6 14 -14z m230 -131 c0
-8 -6 -15 -13 -15 -8 0 -19 -12 -26 -27 -7 -15 -25 -43 -40 -62 -16 -20 -31
-46 -35 -58 -6 -19 -10 -21 -26 -11 -18 12 -18 14 -2 39 22 36 125 149 135
149 4 0 7 -7 7 -15z m-140 -225 c0 -5 -4 -10 -10 -10 -5 0 -10 5 -10 10 0 6 5
10 10 10 6 0 10 -4 10 -10z m-50 -70 c-12 -16 -24 -30 -26 -30 -7 0 5 20 24
43 24 27 25 20 2 -13z m-40 -69 c0 -6 -4 -13 -10 -16 -5 -3 -10 1 -10 9 0 9 5
16 10 16 6 0 10 -4 10 -9z"/>
<path d="M6214 6695 c-8 -20 4 -35 21 -28 8 3 15 0 15 -6 0 -7 -6 -14 -14 -17
-14 -5 -10 -54 4 -54 4 0 18 17 30 37 l22 37 -29 23 c-33 27 -42 28 -49 8z"/>
<path d="M7633 6660 c0 -25 2 -35 4 -22 2 12 2 32 0 45 -2 12 -4 2 -4 -23z"/>
<path d="M7790 6681 c0 -19 12 -41 20 -36 10 6 1 45 -11 45 -5 0 -9 -4 -9 -9z"/>
<path d="M6700 6647 c0 -23 4 -36 10 -32 13 8 13 35 0 55 -7 11 -10 5 -10 -23z"/>
<path d="M1949 6653 c-13 -16 -12 -17 4 -4 9 7 17 15 17 17 0 8 -8 3 -21 -13z"/>
<path d="M8418 6653 c-15 -17 -18 -35 -34 -227 -4 -39 -12 -75 -18 -82 -7 -6
-20 -38 -30 -70 -29 -94 -121 -288 -156 -329 -9 -11 -34 -49 -56 -85 -41 -71
-103 -153 -119 -159 -5 -2 -54 -49 -108 -104 -82 -84 -103 -100 -130 -101 -41
-1 -50 -36 -15 -60 12 -9 17 -16 9 -16 -17 0 -71 51 -71 68 0 7 21 34 46 60
66 67 68 70 107 143 48 93 57 179 19 179 -9 0 -25 9 -37 20 l-22 21 -27 -40
c-15 -22 -34 -42 -42 -45 -8 -3 -14 -12 -14 -21 0 -26 -23 -17 -93 36 -100 75
-207 91 -241 36 -8 -14 -8 -20 4 -28 11 -8 8 -9 -13 -5 -60 14 -180 -72 -262
-186 l-35 -48 27 6 c16 4 39 14 53 23 24 15 35 26 74 72 14 17 21 20 24 10 2
-7 -8 -25 -23 -39 l-28 -25 22 -9 c13 -4 25 -17 28 -28 3 -11 14 -20 24 -20
11 0 28 -6 39 -12 16 -11 22 -9 34 7 20 27 68 124 76 155 3 14 14 26 24 28 20
4 116 -55 116 -72 0 -10 -129 -135 -183 -178 -12 -9 -20 -18 -17 -20 3 -2 13
-7 23 -13 15 -9 18 -30 23 -175 3 -105 10 -183 20 -215 20 -65 44 -195 49
-265 2 -30 6 -73 9 -95 2 -22 5 -43 5 -46 1 -4 10 -9 21 -12 20 -5 25 -27 21
-93 -1 -18 2 -35 8 -39 7 -4 11 10 11 40 0 60 36 110 84 118 55 9 139 54 186
100 77 73 170 184 170 200 0 9 9 21 19 27 17 8 20 6 26 -18 3 -16 1 -41 -5
-56 -14 -38 -13 -66 5 -66 21 0 71 78 95 149 11 35 26 69 33 77 21 26 94 98
126 124 16 14 30 28 31 31 0 3 -30 7 -67 7 -38 1 -90 6 -118 12 -27 6 -66 14
-85 18 -31 6 -35 11 -35 37 0 34 26 45 52 24 22 -19 83 -12 117 13 21 15 37
19 63 15 57 -10 95 16 131 88 18 34 32 71 32 81 0 10 11 39 25 63 23 39 25 54
25 160 0 191 -21 434 -38 447 -11 8 -14 22 -9 55 3 24 1 96 -4 161 -9 102 -8
122 6 152 20 42 16 65 -7 39z m-297 -920 c-10 -17 -10 -16 -11 3 0 23 13 41
18 25 2 -6 -1 -18 -7 -28z m-1 -99 c0 -14 -4 -23 -10 -19 -5 3 -10 15 -10 26
0 10 5 19 10 19 6 0 10 -12 10 -26z m-370 -654 c-18 -16 -40 -30 -47 -30 -24
0 46 59 71 60 5 0 -6 -13 -24 -30z m-90 -150 c0 -5 -5 -10 -11 -10 -5 0 -7 5
-4 10 3 6 8 10 11 10 2 0 4 -4 4 -10z"/>
<path d="M6201 6634 c0 -11 3 -14 6 -6 3 7 2 16 -1 19 -3 4 -6 -2 -5 -13z"/>
<path d="M4196 6631 c-4 -7 -5 -15 -2 -18 9 -9 19 4 14 18 -4 11 -6 11 -12 0z"/>
<path d="M1411 6536 c-28 -41 -69 -94 -90 -117 -21 -24 -46 -59 -56 -79 -9
-19 -21 -43 -26 -52 -18 -34 8 -18 30 20 32 54 84 117 163 200 43 45 68 79 64
88 -11 29 -35 12 -85 -60z"/>
<path d="M1582 6580 c0 -14 2 -19 5 -12 2 6 2 18 0 25 -3 6 -5 1 -5 -13z"/>
<path d="M7840 6504 c0 -69 11 -77 30 -20 7 23 7 41 1 60 -18 46 -31 29 -31
-40z"/>
<path d="M6197 6532 c-19 -20 -23 -37 -7 -27 10 6 33 45 27 45 -2 0 -11 -8
-20 -18z"/>
<path d="M1530 6520 c0 -5 -7 -10 -15 -10 -8 0 -15 -7 -15 -16 0 -8 -15 -30
-32 -49 -47 -48 -88 -101 -88 -114 0 -19 28 -12 35 8 5 17 19 34 85 109 11 12
20 26 20 31 0 5 7 14 15 21 17 14 20 30 5 30 -5 0 -10 -4 -10 -10z"/>
<path d="M7821 6384 c0 -11 3 -14 6 -6 3 7 2 16 -1 19 -3 4 -6 -2 -5 -13z"/>
<path d="M4601 6328 c-1 -36 33 -118 89 -213 16 -27 34 -59 39 -71 12 -27 58
-75 98 -102 50 -35 51 -26 2 26 -25 26 -57 63 -71 83 -24 32 -98 174 -141 269
-15 34 -16 34 -16 8z"/>
<path d="M3785 6290 c-17 -33 -20 -60 -5 -60 6 0 10 4 10 9 0 5 6 16 14 23 7
8 17 24 20 36 11 34 -20 28 -39 -8z"/>
<path d="M3994 6243 c-32 -43 -82 -105 -111 -139 -52 -60 -64 -84 -42 -84 7 0
9 -14 6 -37 -20 -134 -20 -143 -4 -143 20 0 35 20 41 55 5 25 50 122 86 185
12 21 50 109 50 116 0 3 11 20 25 38 25 33 33 70 16 80 -5 4 -35 -29 -67 -71z"/>
<path d="M1331 6283 c-17 -15 -31 -31 -31 -36 0 -13 55 23 68 44 17 27 -1 23
-37 -8z"/>
<path d="M7899 6259 c-7 -135 -7 -133 -40 -142 -15 -4 -23 0 -26 14 -6 22 -14
24 -31 7 -19 -19 -15 -34 24 -87 38 -54 60 -58 70 -12 3 14 10 42 14 61 8 37
5 168 -4 178 -3 3 -7 -6 -7 -19z m-31 -192 c2 -10 -3 -17 -12 -17 -10 0 -16 9
-16 21 0 24 23 21 28 -4z"/>
<path d="M7576 6257 c3 -10 9 -15 12 -12 3 3 0 11 -7 18 -10 9 -11 8 -5 -6z"/>
<path d="M3722 6158 c-19 -34 -40 -74 -47 -88 -25 -50 -38 -96 -39 -136 -1
-22 -6 -47 -12 -55 -6 -8 -19 -36 -29 -64 -10 -27 -24 -59 -32 -70 -17 -25
-18 -78 -1 -73 7 3 21 36 31 74 10 38 24 75 31 84 19 20 46 104 46 139 0 16 6
34 14 40 8 7 17 24 21 39 6 25 22 66 47 118 5 12 8 29 6 39 -2 11 -15 -6 -36
-47z"/>
<path d="M7846 6191 c-4 -7 -5 -15 -2 -18 9 -9 19 4 14 18 -4 11 -6 11 -12 0z"/>
<path d="M1355 6087 c-10 -7 -25 -18 -33 -24 -7 -7 -18 -13 -25 -13 -6 0 -21
-9 -33 -21 -29 -27 -171 -89 -205 -89 -14 0 -34 -9 -44 -20 -10 -11 -26 -20
-36 -20 -17 0 -99 -84 -99 -102 0 -11 -35 -59 -105 -144 -27 -34 -61 -76 -75
-94 -147 -190 -445 -527 -552 -625 -107 -98 -122 -128 -113 -230 7 -84 31
-271 41 -317 l6 -28 22 28 c24 28 111 142 222 290 36 48 95 125 132 172 75 95
73 93 268 350 78 102 160 210 183 240 24 30 67 87 96 125 30 39 89 116 132
172 270 352 278 364 252 362 -8 0 -23 -6 -34 -12z"/>
<path d="M3787 5982 c-26 -28 -22 -52 4 -25 12 11 20 26 17 33 -2 7 -9 5 -21
-8z"/>
<path d="M3735 5897 c-11 -16 -32 -44 -47 -62 -16 -18 -28 -36 -28 -40 0 -3
-15 -30 -34 -58 -18 -29 -39 -69 -46 -89 -12 -41 -30 -51 -30 -18 0 11 -5 20
-11 20 -8 0 -10 -14 -6 -42 4 -32 2 -45 -11 -54 -20 -15 -23 -141 -5 -189 7
-16 17 -50 23 -75 18 -70 29 -92 43 -87 14 5 11 41 -9 81 -8 16 -14 36 -14 45
0 9 -6 27 -13 41 -10 20 -11 37 -2 80 14 67 62 199 79 220 7 8 18 34 26 58 7
23 17 42 21 42 5 0 16 15 25 33 9 17 27 44 41 59 14 14 23 34 21 45 -3 15 -6
14 -23 -10z"/>
<path d="M7650 5870 c0 -5 5 -10 11 -10 5 0 7 5 4 10 -3 6 -8 10 -11 10 -2 0
-4 -4 -4 -10z"/>
<path d="M1687 5763 c-4 -3 -7 -11 -7 -17 0 -6 5 -5 12 2 6 6 9 14 7 17 -3 3
-9 2 -12 -2z"/>
<path d="M1627 5624 c-4 -4 -7 -17 -7 -28 1 -19 1 -20 11 -3 11 19 8 43 -4 31z"/>
<path d="M7036 5538 c-27 -37 -18 -57 9 -23 14 17 25 33 25 38 0 15 -19 6 -34
-15z"/>
<path d="M7196 5531 c-4 -5 -2 -12 3 -15 5 -4 12 -2 15 3 4 5 2 12 -3 15 -5 4
-12 2 -15 -3z"/>
<path d="M1590 5519 c0 -6 -7 -17 -15 -25 -8 -9 -15 -25 -15 -38 0 -12 -4 -26
-9 -31 -13 -15 -41 -105 -41 -132 0 -39 17 -17 35 45 10 31 23 71 30 87 16 36
30 105 21 105 -3 0 -6 -5 -6 -11z"/>
<path d="M3612 5144 c1 -9 9 -19 16 -22 9 -3 13 2 10 14 -1 9 -9 19 -16 22 -9
3 -13 -2 -10 -14z"/>
<path d="M7160 4879 c-24 -21 -42 -41 -39 -43 3 -3 24 13 48 35 55 53 49 58
-9 8z"/>
<path d="M1553 4853 c13 -72 73 -200 131 -276 41 -55 171 -166 181 -155 3 3
-12 16 -32 30 -41 28 -123 107 -123 120 0 4 -13 21 -30 38 -16 16 -35 48 -41
70 -7 22 -18 45 -26 51 -7 6 -13 22 -13 35 0 12 -4 25 -9 28 -4 3 -11 24 -15
46 -3 22 -11 40 -17 40 -7 0 -9 -11 -6 -27z"/>
<path d="M1346 4817 c-5 -15 -6 -31 -2 -34 11 -11 18 5 14 34 l-4 28 -8 -28z"/>
<path d="M8150 4825 c-7 -8 -18 -15 -24 -15 -7 0 -23 -12 -37 -26 -13 -14 -43
-37 -67 -51 -28 -16 -44 -34 -48 -51 -10 -47 -25 -80 -45 -98 -10 -9 -19 -23
-19 -31 0 -33 81 1 138 58 23 23 42 45 42 49 0 5 11 22 24 38 30 35 69 129 57
136 -5 3 -14 -1 -21 -9z"/>
<path d="M7908 4813 c7 -3 16 -2 19 1 4 3 -2 6 -13 5 -11 0 -14 -3 -6 -6z"/>
<path d="M1328 4754 c-5 -4 -8 -22 -8 -40 0 -18 -4 -36 -10 -39 -5 -3 -10 -37
-10 -76 0 -39 4 -69 10 -69 6 0 10 27 10 61 0 33 5 69 11 80 11 22 9 95 -3 83z"/>
<path d="M7636 4643 c-3 -3 -6 -27 -6 -51 0 -53 9 -49 20 8 7 38 1 57 -14 43z"/>
<path d="M7542 4510 c0 -14 2 -19 5 -12 2 6 2 18 0 25 -3 6 -5 1 -5 -13z"/>
<path d="M1335 4450 c9 -16 20 -30 26 -30 5 0 2 14 -8 30 -9 17 -21 30 -25 30
-5 0 -2 -13 7 -30z"/>
<path d="M4705 4400 c-16 -11 -44 -29 -61 -40 -33 -22 -73 -90 -51 -90 16 0
53 27 107 78 26 25 55 42 68 42 31 0 23 24 -9 28 -13 1 -37 -7 -54 -18z"/>
<path d="M1880 4400 c0 -5 9 -10 20 -10 11 0 20 5 20 10 0 6 -9 10 -20 10 -11
0 -20 -4 -20 -10z"/>
<path d="M1380 4392 c0 -5 11 -19 25 -32 30 -28 34 -13 5 18 -22 23 -30 27
-30 14z"/>
<path d="M2425 4175 c20 -16 37 -16 36 0 0 6 -13 11 -28 13 -27 2 -27 2 -8
-13z"/>
<path d="M1330 4120 c-24 -28 -40 -53 -37 -56 13 -13 117 74 117 97 0 25 -43
3 -80 -41z"/>
<path d="M5090 4164 c0 -12 50 -58 56 -52 2 3 -10 17 -26 33 -17 16 -30 24
-30 19z"/>
<path d="M5160 4093 c0 -5 55 -62 123 -126 182 -175 188 -180 244 -222 29 -21
56 -47 59 -57 3 -10 13 -18 21 -18 9 0 31 -15 48 -32 18 -18 50 -46 71 -61
102 -73 141 -105 177 -144 25 -27 48 -43 63 -43 34 0 30 18 -16 60 -22 20 -40
46 -40 57 0 11 13 37 30 59 16 21 30 45 30 52 0 6 4 12 9 12 20 0 78 -30 95
-49 11 -12 25 -21 33 -21 15 0 18 26 3 35 -5 3 -10 19 -10 34 0 16 -7 45 -16
66 -26 63 -2 87 39 38 12 -15 37 -41 56 -58 18 -16 37 -40 42 -52 5 -13 16
-23 24 -23 24 0 11 55 -48 195 -27 66 -52 133 -54 148 -3 16 -11 31 -18 33
-13 5 -89 -22 -170 -61 -27 -13 -72 -34 -100 -46 -27 -12 -72 -36 -100 -54
-41 -27 -64 -34 -127 -40 l-76 -7 -40 36 c-22 20 -44 36 -49 36 -5 0 -31 23
-58 51 -28 28 -86 81 -130 118 -110 91 -115 95 -115 84z m702 -488 c16 -32 16
-35 1 -35 -19 0 -42 28 -43 53 0 29 24 19 42 -18z"/>
<path d="M1201 4004 c-19 -13 -50 -29 -70 -34 -42 -12 -89 -45 -78 -56 4 -4
25 0 47 9 23 9 42 11 46 6 9 -16 19 -10 38 22 10 17 28 35 41 41 26 12 42 39
22 37 -7 0 -27 -12 -46 -25z"/>
<path d="M1142 3870 c-14 -24 -16 -50 -2 -50 11 0 24 43 18 60 -1 5 -9 1 -16
-10z"/>
<path d="M834 3809 c-71 -25 -115 -54 -224 -147 -25 -21 -70 -53 -100 -72 -74
-45 -190 -122 -190 -126 0 -4 94 -239 113 -284 97 -224 354 -700 378 -700 16
0 19 34 4 42 -8 5 -15 16 -15 24 0 8 -11 19 -24 24 -17 6 -31 26 -44 62 -19
49 -19 54 -4 66 9 6 23 12 31 12 9 0 25 7 35 15 22 17 86 20 86 6 0 -6 -5 -13
-10 -16 -13 -8 -13 -75 0 -75 5 0 13 18 16 40 4 22 15 50 25 61 23 26 23 21 3
62 -16 33 -16 35 12 78 16 24 35 50 42 58 25 26 -4 34 -46 12 -23 -12 -48 -21
-57 -21 -8 0 -15 -4 -15 -8 0 -12 -130 -62 -161 -62 -26 0 -115 80 -103 93 15
15 34 6 40 -18 4 -16 13 -25 26 -25 16 0 111 46 143 70 6 4 26 10 46 14 19 3
50 17 67 29 17 13 51 32 74 41 24 10 62 26 86 37 23 10 48 19 56 19 20 0 47
35 40 53 -8 22 -32 29 -41 12 -5 -7 -62 -32 -128 -54 -153 -51 -195 -68 -222
-93 -11 -11 -36 -23 -55 -28 -18 -5 -43 -12 -55 -15 -17 -6 -22 -2 -25 17 -3
22 -7 23 -60 20 -52 -3 -58 -2 -58 16 0 20 64 72 125 102 17 8 55 29 85 46 30
18 91 47 135 64 101 40 244 112 311 156 28 19 58 34 68 34 17 0 22 25 6 35 -5
3 -10 17 -10 31 0 17 -8 28 -27 37 -16 6 -50 34 -76 61 -39 39 -51 47 -58 35
-5 -8 -9 -21 -9 -30 0 -9 -7 -23 -16 -30 -23 -19 -87 -40 -96 -31 -10 10 -28
128 -30 206 -3 76 -5 77 -94 45z m58 -406 c2 -10 2 -33 0 -51 -4 -29 -11 -36
-71 -66 -36 -18 -104 -56 -150 -85 -46 -28 -93 -51 -103 -51 -24 0 -23 27 2
42 13 9 20 24 20 46 0 37 39 82 72 82 10 0 24 5 31 11 20 18 161 87 179 88 9
1 18 -7 20 -16z"/>
<path d="M1556 3821 c-4 -7 -5 -15 -2 -18 9 -9 19 4 14 18 -4 11 -6 11 -12 0z"/>
<path d="M1516 3784 c-3 -9 -6 -29 -6 -44 0 -16 -4 -32 -10 -35 -5 -3 -10 -21
-10 -38 0 -18 -6 -41 -14 -52 -12 -19 -18 -41 -32 -121 -7 -40 11 -53 37 -28
26 27 57 172 58 277 1 55 -10 75 -23 41z"/>
<path d="M1325 3460 c-3 -5 -1 -10 4 -10 6 0 11 5 11 10 0 6 -2 10 -4 10 -3 0
-8 -4 -11 -10z"/>
<path d="M1124 3318 c-43 -32 -104 -91 -104 -100 0 -13 30 -9 36 5 2 7 29 32
59 56 52 41 67 61 46 61 -4 0 -21 -10 -37 -22z"/>
<path d="M6166 3165 c4 -16 15 -39 25 -50 62 -70 79 -95 79 -118 0 -13 7 -30
15 -37 8 -7 15 -23 15 -36 0 -12 5 -26 10 -29 6 -3 10 -42 10 -85 0 -43 5 -91
11 -107 15 -39 15 -140 0 -186 -8 -24 -23 -43 -42 -52 -16 -9 -29 -20 -29 -25
0 -13 34 -30 59 -30 24 0 100 84 142 158 28 48 31 61 32 147 0 51 -4 100 -10
107 -6 7 -13 25 -17 40 -3 15 -17 33 -30 40 -13 7 -60 56 -104 108 -44 52
-101 115 -127 140 -46 45 -46 45 -39 15z"/>
<path d="M814 3135 c-19 -14 -19 -14 2 -15 12 0 27 7 34 15 17 20 -9 21 -36 0z"/>
<path d="M6990 3118 c-14 -17 -42 -52 -62 -77 -59 -71 -53 -76 38 -30 34 18
82 51 105 75 l43 44 -36 0 c-20 0 -40 5 -43 10 -10 16 -18 12 -45 -22z"/>
<path d="M5080 2694 c-93 -93 -166 -144 -206 -144 -23 0 -42 -11 -75 -43 -135
-132 -413 -317 -477 -317 -34 0 -35 -18 -4 -68 17 -26 39 -65 49 -87 11 -22
24 -49 31 -60 20 -36 64 -149 79 -205 8 -30 21 -70 29 -88 8 -18 18 -64 21
-103 4 -46 11 -73 20 -76 19 -7 17 -63 -2 -63 -8 0 -15 -7 -15 -15 0 -26 26
-16 44 18 35 64 51 93 72 122 11 17 51 85 88 153 37 67 73 128 80 135 6 6 18
32 25 57 14 47 80 175 110 212 21 26 41 17 41 -19 0 -22 3 -24 26 -19 66 17
144 -96 129 -187 -3 -23 -8 -89 -10 -147 l-3 -105 49 -74 c27 -40 52 -84 55
-97 3 -13 9 -24 13 -24 4 0 12 -20 20 -44 7 -24 26 -56 42 -72 16 -15 29 -36
29 -47 0 -22 48 -107 61 -107 4 0 14 10 20 23 7 12 22 32 35 45 20 21 44 96
44 140 0 10 9 26 21 35 13 12 18 24 14 35 -4 9 -12 44 -19 77 l-13 60 -58 3
c-31 2 -70 -1 -85 -7 -34 -11 -103 9 -108 32 -2 8 7 25 20 37 21 20 29 21 93
14 39 -4 85 -8 104 -8 l34 -1 2 180 c2 99 8 192 13 207 6 14 11 49 10 77 l0
51 -132 66 c-109 54 -144 77 -204 135 -58 55 -72 75 -72 99 0 17 4 30 9 30 4
0 16 21 25 48 9 26 24 61 33 79 16 33 10 58 -13 49 -7 -3 -18 4 -24 14 -14 27
-40 25 -70 -6z"/>
<path d="M5620 2327 c0 -2 34 -28 75 -57 42 -29 78 -63 81 -74 3 -12 26 -37
51 -56 25 -19 51 -41 59 -48 9 -9 14 -9 14 -2 0 18 58 -18 105 -67 25 -25 45
-51 45 -57 0 -13 61 -76 74 -76 4 0 -2 15 -13 34 -12 18 -21 42 -21 53 0 11
-32 50 -79 94 -89 84 -78 76 -191 152 -47 32 -100 69 -119 83 -28 20 -81 33
-81 21z"/>
<path d="M5604 2105 c-4 -9 -3 -93 0 -188 8 -195 8 -218 4 -238 -4 -19 80 -24
149 -9 59 13 93 2 93 -30 0 -37 -41 -52 -137 -50 -48 1 -93 2 -99 1 -7 -1 -10
-49 -10 -148 1 -132 3 -153 24 -194 12 -25 22 -50 22 -56 0 -33 51 -160 72
-178 24 -20 78 -113 78 -134 0 -6 19 -43 42 -81 31 -53 47 -70 63 -70 21 0 48
-25 93 -88 27 -38 30 -62 4 -39 -10 10 -35 17 -55 17 -37 0 -57 -14 -33 -23 8
-3 18 -37 26 -87 7 -45 18 -84 25 -86 6 -3 22 -36 35 -74 22 -66 22 -71 6 -89
-13 -15 -14 -21 -5 -27 7 -4 15 -2 17 4 2 7 7 12 12 12 8 0 24 -101 22 -135
-4 -47 8 -50 125 -31 213 34 537 117 783 200 74 25 136 46 138 46 8 0 -14 59
-31 82 -21 29 -17 58 8 58 8 0 20 -11 25 -25 5 -14 14 -25 20 -25 5 0 10 -10
10 -23 0 -45 17 -47 108 -10 130 51 332 145 332 153 0 4 -14 20 -30 36 -38 36
-124 153 -118 160 20 19 143 -76 189 -146 l17 -25 41 20 42 20 -35 45 c-20 25
-36 49 -36 54 0 9 -26 40 -71 85 -14 14 -31 36 -38 49 -6 12 -21 22 -32 22
-19 0 -20 -4 -14 -40 4 -22 3 -40 -2 -41 -4 0 -24 -3 -43 -5 -110 -16 -403 -3
-417 19 -3 6 -6 26 -5 44 1 26 -5 40 -25 57 -23 20 -36 23 -100 21 -58 -2 -78
1 -96 15 -16 14 -19 21 -10 31 6 8 13 25 15 39 4 32 34 38 43 10 4 -14 1 -28
-10 -40 -20 -22 -11 -29 42 -28 34 0 40 3 36 18 -3 10 -16 28 -29 41 -14 13
-24 34 -24 50 0 40 -11 64 -21 47 -15 -23 -29 5 -22 45 4 29 10 37 21 32 20
-7 34 15 20 32 -6 7 -20 13 -33 13 -32 0 -59 35 -60 78 0 29 -4 37 -20 40 -11
2 -28 11 -37 19 -26 23 -62 13 -66 -19 -3 -25 -5 -27 -25 -17 -12 7 -30 20
-39 30 -11 10 -25 15 -38 12 -14 -4 -30 3 -50 22 -26 25 -28 32 -26 102 1 41
-1 77 -4 81 -3 4 -29 25 -57 47 -29 21 -53 42 -53 45 0 3 -22 19 -50 35 -27
16 -50 33 -50 37 0 12 -79 62 -104 65 -11 2 -33 12 -48 23 -15 11 -33 20 -41
20 -19 0 -153 82 -256 155 -45 33 -98 70 -116 82 -18 12 -36 27 -40 33 -9 15
-35 12 -41 -5z m1076 -790 c0 -8 -4 -15 -10 -15 -5 0 -10 7 -10 15 0 8 5 15
10 15 6 0 10 -7 10 -15z m-585 -826 c20 -28 33 -54 30 -57 -4 -4 -10 0 -15 8
-5 8 -20 30 -34 49 -24 32 -32 51 -22 51 2 0 21 -23 41 -51z m1125 -20 c0 -5
-4 -9 -10 -9 -5 0 -10 7 -10 16 0 8 5 12 10 9 6 -3 10 -10 10 -16z m-770 -299
c0 -5 -4 -10 -10 -10 -5 0 -10 5 -10 10 0 6 5 10 10 10 6 0 10 -4 10 -10z"/>
<path d="M6175 1920 c3 -5 8 -10 11 -10 2 0 4 5 4 10 0 6 -5 10 -11 10 -5 0
-7 -4 -4 -10z"/>
<path d="M6130 1870 c0 -5 5 -10 11 -10 5 0 7 5 4 10 -3 6 -8 10 -11 10 -2 0
-4 -4 -4 -10z"/>
<path d="M6425 1730 c3 -5 10 -10 16 -10 5 0 9 5 9 10 0 6 -7 10 -16 10 -8 0
-12 -4 -9 -10z"/>
<path d="M6925 1120 c3 -5 8 -10 11 -10 2 0 4 5 4 10 0 6 -5 10 -11 10 -5 0
-7 -4 -4 -10z"/>
<path d="M6955 940 c3 -5 8 -10 11 -10 2 0 4 5 4 10 0 6 -5 10 -11 10 -5 0 -7
-4 -4 -10z"/>
<path d="M4227 914 c-4 -4 -7 -14 -7 -23 0 -11 3 -12 11 -4 6 6 10 16 7 23 -2
6 -7 8 -11 4z"/>
<path d="M4090 734 c-14 -35 -6 -54 20 -54 18 0 21 5 18 37 -4 45 -24 54 -38
17z"/>
<path d="M5099 724 c-49 -36 -146 -148 -206 -236 -19 -29 -41 -57 -49 -61 -25
-14 -39 -51 -44 -117 l-5 -65 -84 -42 c-47 -23 -89 -49 -93 -58 -5 -8 -32 -31
-60 -49 l-51 -35 37 -7 c25 -4 46 -2 63 7 22 12 27 11 38 -5 11 -15 40 -20
157 -31 191 -18 516 -28 552 -17 l30 8 -52 32 c-29 18 -61 32 -72 32 -11 0
-20 4 -20 9 0 5 -24 18 -53 30 -93 38 -190 159 -142 177 9 4 21 2 28 -5 17
-17 35 -13 47 8 8 15 5 28 -12 56 -36 63 -31 125 21 230 25 50 51 94 58 98 21
13 15 43 -12 61 -13 9 -26 16 -27 15 -2 0 -24 -16 -49 -35z"/>
<path d="M6000 178 c0 -21 2 -38 4 -38 9 0 12 50 5 62 -6 8 -9 -1 -9 -24z"/>
<path d="M5626 193 c-12 -12 -6 -33 9 -33 8 0 15 -8 15 -17 1 -21 33 -63 49
-63 6 0 11 3 11 6 0 13 -42 74 -51 74 -5 0 -9 6 -9 14 0 17 -14 28 -24 19z"/>
<path d="M5822 143 c-23 -33 -52 -92 -52 -105 0 -11 127 0 150 13 8 5 10 9 4
9 -6 0 -14 12 -17 28 -6 29 -43 82 -57 82 -5 0 -17 -12 -28 -27z"/>
<path d="M5495 50 c-3 -5 -16 -10 -28 -10 -12 -1 -35 -7 -52 -15 -28 -13 -24
-13 63 -14 l92 -1 -16 25 c-17 25 -48 33 -59 15z"/>
</g>
</svg>
